<svg width="83" height="83" viewBox="0 0 83 83" fill="none" xmlns="http://www.w3.org/2000/svg">
<circle cx="42.9292" cy="41.0234" r="38.1176" fill="#5B2CD3"/>
<g filter="url(#filter0_b_3208_1620)">
<rect x="1" y="1" width="81" height="81" rx="20" fill="url(#paint0_linear_3208_1620)" fill-opacity="0.24"/>
<rect x="1" y="1" width="81" height="81" rx="20" stroke="url(#paint1_linear_3208_1620)" stroke-width="0.5" stroke-linecap="round" stroke-linejoin="round"/>
</g>
<path d="M41.1003 47.6665H43.1003V39.6665H41.1003V47.6665ZM41.9997 37.1998C42.3112 37.1998 42.5725 37.0976 42.7837 36.8932C42.9948 36.6887 43.1003 36.4354 43.1003 36.1332C43.1003 35.8121 42.995 35.5429 42.7843 35.3257C42.5735 35.1084 42.3124 34.9998 42.0009 34.9998C41.6894 34.9998 41.4281 35.1084 41.217 35.3257C41.0059 35.5429 40.9003 35.8121 40.9003 36.1332C40.9003 36.4354 41.0057 36.6887 41.2164 36.8932C41.4271 37.0976 41.6882 37.1998 41.9997 37.1998ZM42.0092 54.3332C40.1707 54.3332 38.4429 53.9832 36.8259 53.2832C35.2088 52.5832 33.7948 51.6276 32.5837 50.4165C31.3725 49.2054 30.417 47.7905 29.717 46.1718C29.017 44.5531 28.667 42.8236 28.667 40.9832C28.667 39.1427 29.017 37.4132 29.717 35.7945C30.417 34.1758 31.3725 32.7665 32.5837 31.5665C33.7948 30.3665 35.2097 29.4165 36.8284 28.7165C38.447 28.0165 40.1766 27.6665 42.017 27.6665C43.8574 27.6665 45.587 28.0165 47.2056 28.7165C48.8243 29.4165 50.2337 30.3665 51.4337 31.5665C52.6337 32.7665 53.5837 34.1776 54.2837 35.7998C54.9837 37.4221 55.3337 39.1524 55.3337 40.991C55.3337 42.8295 54.9837 44.5573 54.2837 46.1743C53.5837 47.7913 52.6337 49.2033 51.4337 50.4104C50.2337 51.6174 48.8225 52.5729 47.2003 53.277C45.5781 53.9811 43.8477 54.3332 42.0092 54.3332ZM42.017 52.3332C45.1614 52.3332 47.8337 51.2276 50.0337 49.0165C52.2337 46.8054 53.3337 44.1276 53.3337 40.9832C53.3337 37.8387 52.2357 35.1665 50.0399 32.9665C47.8441 30.7665 45.1642 29.6665 42.0003 29.6665C38.867 29.6665 36.1948 30.7644 33.9837 32.9602C31.7725 35.1561 30.667 37.8359 30.667 40.9998C30.667 44.1332 31.7725 46.8054 33.9837 49.0165C36.1948 51.2276 38.8725 52.3332 42.017 52.3332Z" fill="white"/>
<defs>
<filter id="filter0_b_3208_1620" x="-23.25" y="-23.25" width="129.5" height="129.5" filterUnits="userSpaceOnUse" color-interpolation-filters="sRGB">
<feFlood flood-opacity="0" result="BackgroundImageFix"/>
<feGaussianBlur in="BackgroundImageFix" stdDeviation="12"/>
<feComposite in2="SourceAlpha" operator="in" result="effect1_backgroundBlur_3208_1620"/>
<feBlend mode="normal" in="SourceGraphic" in2="effect1_backgroundBlur_3208_1620" result="shape"/>
</filter>
<linearGradient id="paint0_linear_3208_1620" x1="52.8162" y1="12.3162" x2="71.2794" y2="64.7279" gradientUnits="userSpaceOnUse">
<stop stop-color="#2D59F6"/>
<stop offset="1" stop-color="#34A0FF" stop-opacity="0.4"/>
</linearGradient>
<linearGradient id="paint1_linear_3208_1620" x1="5.32758" y1="6.86416" x2="67.6657" y2="84.0921" gradientUnits="userSpaceOnUse">
<stop stop-color="white" stop-opacity="0.25"/>
<stop offset="1" stop-color="white" stop-opacity="0"/>
</linearGradient>
</defs>
</svg>
