<svg width="14" height="16" viewBox="0 0 14 16" fill="none" xmlns="http://www.w3.org/2000/svg">
<path d="M10.517 5.983C10.1772 5.983 9.90145 5.70722 9.90145 5.36744V3.96858C9.90145 2.76762 9.06398 1.65807 7.91042 1.33059C6.66206 0.976955 5.28228 1.58451 4.70427 2.74761C4.55285 3.05232 4.18351 3.17573 3.87881 3.02462C3.57441 2.87319 3.45038 2.50385 3.60181 2.19915C4.43958 0.514362 6.43708 -0.368351 8.24682 0.145949C9.94607 0.628241 11.1326 2.20007 11.1326 3.96827V5.36713C11.1326 5.70753 10.8571 5.983 10.517 5.983Z" fill="#868894"/>
<path d="M7.15943 13.286C6.81965 13.286 6.54387 13.0102 6.54387 12.6704V10.544C6.54387 10.2042 6.81965 9.92842 7.15943 9.92842C7.49922 9.92842 7.77499 10.2042 7.77499 10.544V12.6704C7.77499 13.0102 7.49922 13.286 7.15943 13.286Z" fill="#868894"/>
<path d="M7.15943 11.1592C6.14099 11.1592 5.31275 10.331 5.31275 9.31256C5.31275 8.29412 6.14099 7.46588 7.15943 7.46588C8.17788 7.46588 9.00611 8.29412 9.00611 9.31256C9.00611 10.331 8.17788 11.1592 7.15943 11.1592ZM7.15943 8.697C6.8258 8.697 6.54387 8.97892 6.54387 9.31256C6.54387 9.64619 6.8258 9.92812 7.15943 9.92812C7.49307 9.92812 7.77499 9.64619 7.77499 9.31256C7.77499 8.97892 7.49307 8.697 7.15943 8.697Z" fill="#868894"/>
<path d="M1.11556 15.3844C0.775771 15.3844 0.5 15.1087 0.5 14.7689V5.983C0.5 5.64321 0.775771 5.36744 1.11556 5.36744C1.45535 5.36744 1.73112 5.64321 1.73112 5.983V14.7689C1.73112 15.1087 1.45566 15.3844 1.11556 15.3844Z" fill="#868894"/>
<path d="M13.203 15.3844C12.8632 15.3844 12.5874 15.1087 12.5874 14.7689V5.983C12.5874 5.64321 12.8632 5.36744 13.203 5.36744C13.5428 5.36744 13.8186 5.64321 13.8186 5.983V14.7689C13.8186 15.1087 13.5428 15.3844 13.203 15.3844Z" fill="#868894"/>
<path d="M1.11525 6.59856C0.775463 6.59856 0.5 6.32278 0.5 5.983C0.5 5.30403 1.05216 4.75188 1.73112 4.75188C2.07091 4.75188 2.34668 5.02765 2.34668 5.36744C2.34668 5.70722 2.07091 5.983 1.73112 5.983H1.7305C1.7305 6.32309 1.45535 6.59856 1.11525 6.59856Z" fill="#868894"/>
<path d="M12.5874 5.983H1.73112C1.39133 5.983 1.11556 5.70722 1.11556 5.36744C1.11556 5.02765 1.39133 4.75188 1.73112 4.75188H12.5871C12.9269 4.75188 13.2027 5.02765 13.2027 5.36744C13.2027 5.70722 12.9272 5.983 12.5874 5.983Z" fill="#868894"/>
<path d="M13.203 6.59856C12.8632 6.59856 12.5874 6.32278 12.5874 5.983V5.98207C12.2477 5.98207 11.9719 5.70692 11.9719 5.36713C11.9719 5.02734 12.2477 4.75188 12.5874 4.75188C13.2664 4.75188 13.8186 5.30403 13.8186 5.983C13.8186 6.32309 13.5428 6.59856 13.203 6.59856Z" fill="#868894"/>
<path d="M12.5874 16C12.2477 16 11.9719 15.7242 11.9719 15.3844C11.9719 15.0447 12.2477 14.7689 12.5874 14.7689H12.5881C12.5881 14.4291 12.8632 14.1533 13.2033 14.1533C13.5431 14.1533 13.8186 14.4291 13.8186 14.7689C13.8186 15.4478 13.2661 16 12.5874 16Z" fill="#868894"/>
<path d="M12.5874 16H1.73112C1.39133 16 1.11556 15.7242 1.11556 15.3844C1.11556 15.0447 1.39133 14.7689 1.73112 14.7689H12.5871C12.9269 14.7689 13.2027 15.0447 13.2027 15.3844C13.2027 15.7242 12.9272 16 12.5874 16Z" fill="#868894"/>
<path d="M1.73112 16C1.05216 16 0.5 15.4478 0.5 14.7689C0.5 14.4291 0.775771 14.1533 1.11556 14.1533C1.45535 14.1533 1.73112 14.4291 1.73112 14.7689V14.7698C2.07091 14.7698 2.34668 15.045 2.34668 15.3847C2.34668 15.7245 2.07122 16 1.73112 16Z" fill="#868894"/>
</svg>
